<?xml version="1.0" encoding="utf-8"?>
<!-- Generator: Adobe Illustrator 25.3.1, SVG Export Plug-In . SVG Version: 6.00 Build 0)  -->
<svg version="1.1" xmlns="http://www.w3.org/2000/svg" xmlns:xlink="http://www.w3.org/1999/xlink" x="0px" y="0px"
	 viewBox="0 0 16 16" style="enable-background:new 0 0 16 16;" xml:space="preserve">
<style type="text/css">
	.st0{fill:#FFFFFF;}
	.st1{fill:#FFFFFF;stroke:#FFFFFF;stroke-width:6.671408e-02;stroke-miterlimit:10;}
	.st2{fill:none;stroke:#FFFFFF;stroke-width:6.902314e-02;stroke-miterlimit:10;}
	.st3{fill:#FFFFFF;stroke:#FFFFFF;stroke-width:6.902314e-02;stroke-miterlimit:10;}
	.st4{fill:#FFFFFF;stroke:#FFFFFF;stroke-width:5.851393e-02;stroke-miterlimit:10;}
	.st5{fill:#FFFFFF;stroke:#FFFFFF;stroke-width:5.847802e-02;stroke-miterlimit:10;}
</style>
<g id="Layer_2">
</g>
<g id="Layer_1">
	<g>
		<path class="st0" d="M3.5,9.7V9.5l0,0h0.3l0,0l0.1-0.1l0,0V6.5l0,0V6.4l0,0H3.6l0,0V6.2l0,0h1.3c0.6,0,1,0.1,1.3,0.3
			c0.3,0.2,0.4,0.4,0.4,0.8c0,0.3-0.1,0.6-0.4,0.8C5.8,8.3,5.4,8.4,4.9,8.4c0,0-0.1,0-0.2,0s-0.1,0-0.2,0l0,0v1l0,0l0.1,0.1l0,0H5
			l0,0v0.2l0,0H3.5L3.5,9.7z M4.5,8C4.5,8.1,4.5,8.1,4.5,8c0.1,0,0.2,0,0.2,0.1c0.1,0,0.1,0,0.1,0c0.3,0,0.6-0.1,0.8-0.2
			c0.2-0.2,0.3-0.4,0.3-0.7c0-0.3-0.1-0.5-0.3-0.6C5.4,6.4,5.2,6.4,4.8,6.4c-0.1,0-0.1,0-0.2,0H4.5l0,0V8z"/>
	</g>
	<g>
		<path class="st0" d="M10.7,6.1H11l0,0l1.3,3.3l0,0l0.3,0.1l0,0v0.2l0,0h-1.2l0,0V9.5l0,0h0.3l0,0l0,0l0,0l-0.4-1l0,0H10l0,0
			l-0.4,1l0,0l0,0l0,0h0.3l0,0v0.2l0,0h-1l0,0V9.5l0,0l0.3-0.1l0,0L10.7,6.1L10.7,6.1z M10.7,6.8l-0.5,1.3l0,0h1l0,0L10.7,6.8
			C10.8,6.7,10.7,6.7,10.7,6.8z"/>
	</g>
	<g>
		<path class="st1" d="M8,7.3L8,7.3C8.1,7.3,8.1,7.4,8,7.3l0.1,0.5l0,0h0.5l0,0V8l0,0H8.1l0,0v0.5l0,0H8l0,0V8l0,0H7.5l0,0V7.9l0,0
			H8l0,0V7.3C7.9,7.4,8,7.3,8,7.3z"/>
	</g>
	<path class="st2" d="M5.2,15.1C2.3,14,0.3,11.3,0.3,8c0-1.5,0.4-2.9,1.2-4C2,3.2,2.7,2.4,3.6,1.9c1-0.7,2.2-1.2,3.5-1.3
		c0.3,0,0.5,0,0.8,0c4.2,0,7.6,3.4,7.6,7.6c0,0.8-0.1,1.6-0.4,2.3"/>
	<g>
		<g>
			<path class="st0" d="M5.5,15.8c0.8-0.7,1.8-1,2.9-1c0.9-0.1,1.9,0.1,2.8-0.1c1.5-0.3,2.5-1.4,3-2.7c0,0,0-0.1-0.1,0
				c-0.3,0.8-0.8,1.5-1.4,2c-0.8,0.6-1.7,0.7-2.6,0.7C8.4,14.7,6.8,14.6,5.5,15.8C5.4,15.8,5.5,15.9,5.5,15.8L5.5,15.8z"/>
		</g>
	</g>
	<g>
		<path class="st0" d="M7.5,14.9C7.4,14.4,7.6,14,8,13.7c0.1-0.1,0.2-0.2,0.3-0.1h0.1c0.1,0.1,0.1,0.2,0.1,0.3
			c0,0.3-0.1,0.5-0.3,0.7C8,14.7,7.7,14.8,7.5,14.9"/>
		<g>
			<path class="st0" d="M7.5,14.9C7.4,14.5,7.6,14,8,13.7c0.1-0.1,0.2-0.2,0.3-0.2s0.2,0.2,0.1,0.3c0,0.2-0.1,0.5-0.3,0.7
				C8,14.6,7.7,14.8,7.5,14.9C7.4,14.8,7.4,14.9,7.5,14.9c0.5-0.1,0.9-0.5,1-1.1c0-0.1,0-0.2-0.1-0.3s-0.2-0.1-0.3,0
				c-0.2,0.1-0.4,0.3-0.5,0.5C7.4,14.3,7.4,14.6,7.5,14.9C7.4,14.9,7.5,14.9,7.5,14.9L7.5,14.9z"/>
		</g>
	</g>
	<g>
		<path class="st0" d="M13.3,13.1c-0.1,0.2-0.2,0.4-0.3,0.6c-0.2-0.3-0.4-0.6-0.4-1c0-0.1,0-0.2,0.1-0.3c0-0.1,0.1-0.2,0.2-0.2
			c0.1,0,0.3,0,0.3,0.1c0.1,0.1,0.1,0.2,0.1,0.4C13.4,12.8,13.4,13,13.3,13.1z"/>
		<g>
			<path class="st0" d="M13.3,13.1c-0.1,0.2-0.1,0.4-0.3,0.6c0,0,0,0,0.1,0c-0.1-0.2-0.2-0.4-0.3-0.6c-0.1-0.2-0.1-0.5,0-0.7
				c0.1-0.1,0.1-0.2,0.3-0.2c0.1,0,0.2,0.1,0.3,0.2C13.5,12.6,13.4,12.9,13.3,13.1C13.3,13.1,13.4,13.1,13.3,13.1
				c0.1-0.2,0.2-0.4,0.1-0.6c-0.1-0.2-0.2-0.3-0.4-0.3s-0.3,0.1-0.4,0.3c-0.1,0.2,0,0.4,0,0.6c0.1,0.2,0.2,0.4,0.3,0.6
				c0,0,0,0,0.1,0C13.2,13.5,13.3,13.3,13.3,13.1C13.4,13,13.3,13,13.3,13.1z"/>
		</g>
	</g>
	<g>
		<path class="st0" d="M10.6,14.7C10.5,14.7,10.5,14.7,10.6,14.7c-0.1-0.2-0.1-0.3-0.1-0.5c0-0.3,0.1-0.6,0.2-0.8
			c0.1-0.1,0.1-0.1,0.2-0.2c0.1,0,0.2,0,0.3,0.1l0.1,0.1c0.1,0.2,0,0.5-0.1,0.7c-0.1,0.1-0.2,0.2-0.3,0.3
			C10.8,14.6,10.6,14.7,10.6,14.7z"/>
		<g>
			<path class="st0" d="M10.6,14.7L10.6,14.7L10.6,14.7c0-0.1,0-0.2-0.1-0.3c0-0.1,0-0.2,0-0.4s0.1-0.5,0.3-0.6
				c0.1-0.1,0.2-0.1,0.3,0s0.1,0.2,0.1,0.4c0,0.3-0.1,0.5-0.3,0.7c-0.1,0.1-0.1,0.1-0.2,0.2C10.7,14.6,10.6,14.7,10.6,14.7
				C10.5,14.7,10.5,14.8,10.6,14.7c0.1,0.1,0.1,0,0.2,0c0.1-0.1,0.2-0.1,0.2-0.2c0.2-0.2,0.3-0.5,0.3-0.8c0-0.1,0-0.3-0.1-0.3
				c-0.1-0.1-0.2-0.1-0.3-0.1c-0.3,0.1-0.4,0.4-0.4,0.6c0,0.2,0,0.3,0,0.5C10.4,14.4,10.5,14.5,10.6,14.7
				C10.5,14.6,10.5,14.7,10.6,14.7C10.6,14.8,10.6,14.7,10.6,14.7z"/>
		</g>
	</g>
	<g>
		<path class="st0" d="M11.9,14.4c-0.1-0.1-0.1-0.1-0.1-0.2c0-0.2-0.1-0.4,0-0.5c0-0.1,0-0.2,0.1-0.3s0.2-0.1,0.3-0.1
			s0.1,0.1,0.1,0.2c0,0.1,0,0.1,0,0.2C12.2,13.9,12.1,14.2,11.9,14.4"/>
		<g>
			<path class="st0" d="M11.9,14.4c-0.1-0.1-0.1-0.2-0.1-0.2c0-0.1,0-0.2,0-0.4s0-0.5,0.3-0.5c0.1,0,0.2,0.1,0.2,0.2
				c0,0.1,0,0.2,0,0.3C12.1,14.1,12,14.2,11.9,14.4C11.8,14.4,11.9,14.5,11.9,14.4c0.1-0.1,0.2-0.3,0.3-0.5s0.1-0.4,0-0.6
				c-0.1-0.2-0.3-0.2-0.4-0.1c-0.1,0.1-0.2,0.4-0.2,0.5s0,0.2,0.1,0.4C11.8,14.3,11.8,14.4,11.9,14.4C11.9,14.5,12,14.4,11.9,14.4
				L11.9,14.4z"/>
		</g>
	</g>
	<g>
		<path class="st0" d="M14.5,13.1c-0.1,0-0.3,0-0.5,0c-0.1,0-0.1,0-0.2,0L13.6,13c0.2-0.2,0.5-0.4,0.8-0.5c0.1,0,0.2-0.1,0.3,0
			c0.1,0,0.2,0.1,0.2,0.2c0,0.1-0.1,0.2-0.1,0.2C14.8,13,14.7,13.1,14.5,13.1z"/>
		<g>
			<path class="st0" d="M14.5,13.1c-0.2,0-0.4,0-0.6,0h-0.1c0,0,0,0-0.1,0l0,0l0,0l0,0c0.3-0.2,0.6-0.5,1-0.6c0.1,0,0.2,0,0.3,0.1
				s0.1,0.2,0,0.2C14.9,12.9,14.7,13,14.5,13.1L14.5,13.1c0.2,0,0.5-0.1,0.6-0.3c0-0.2-0.2-0.4-0.4-0.3c-0.3,0-0.5,0.2-0.7,0.3
				l-0.1,0.1c0,0,0,0-0.1,0.1c0,0-0.1,0-0.1,0.1s0,0.1,0.1,0.1C14,13.2,14.3,13.2,14.5,13.1C14.6,13.1,14.6,13,14.5,13.1z"/>
		</g>
	</g>
	<g>
		<path class="st0" d="M11.2,14.7c0.4,0,0.9,0.1,1.3,0.4c0.1,0.1,0.2,0.1,0.2,0.3c0,0.1,0,0.2-0.1,0.3s-0.1,0.1-0.2,0.1
			c-0.3,0-0.5-0.1-0.7-0.3c-0.1-0.1-0.2-0.2-0.3-0.3C11.2,15,11.1,14.8,11.2,14.7L11.2,14.7z"/>
		<g>
			<path class="st0" d="M11.2,14.7c0.5,0,1,0.1,1.3,0.5c0.1,0.1,0.1,0.2,0.1,0.3s-0.2,0.2-0.3,0.2c-0.2,0-0.5-0.1-0.7-0.3
				C11.4,15.2,11.2,15,11.2,14.7C11.2,14.7,11.1,14.7,11.2,14.7L11.2,14.7C11.2,14.7,11.2,14.6,11.2,14.7
				C11.2,14.6,11.1,14.7,11.2,14.7C11.1,14.7,11.1,14.7,11.2,14.7c-0.1,0.3,0.1,0.5,0.3,0.7s0.5,0.3,0.8,0.4c0.1,0,0.3,0,0.4-0.1
				c0.1-0.1,0.1-0.2,0.1-0.3c-0.1-0.3-0.4-0.4-0.6-0.5C11.8,14.7,11.5,14.7,11.2,14.7C11.1,14.6,11.1,14.7,11.2,14.7z"/>
		</g>
	</g>
	<g>
		<path class="st0" d="M10.8,15.3c0.1,0.1,0.2,0.2,0.2,0.4c0,0.1-0.1,0.3-0.2,0.3c-0.1,0-0.3-0.1-0.3-0.1c-0.2-0.2-0.4-0.5-0.5-0.8
			l-0.1-0.3C10.2,14.8,10.6,15.1,10.8,15.3z"/>
		<g>
			<path class="st0" d="M10.8,15.3c0.1,0.1,0.2,0.3,0.2,0.5c0,0.1-0.1,0.2-0.2,0.2c-0.1,0-0.2,0-0.3-0.1s-0.2-0.3-0.3-0.4
				C10.1,15.3,10,15.2,10,15c0-0.1,0-0.1,0-0.2c0,0,0-0.1-0.1-0.1c0,0,0,0,0,0.1c0.2,0,0.3,0.1,0.5,0.2
				C10.5,15.1,10.7,15.2,10.8,15.3C10.8,15.4,10.9,15.3,10.8,15.3c-0.1-0.2-0.2-0.3-0.4-0.4c-0.2-0.1-0.3-0.2-0.5-0.2v0.1l0,0l0,0
				v0.1V15c0.1,0.2,0.2,0.4,0.3,0.6c0.1,0.2,0.2,0.3,0.4,0.4c0.2,0,0.3-0.1,0.4-0.2C11.1,15.6,11,15.4,10.8,15.3
				C10.8,15.3,10.7,15.3,10.8,15.3z"/>
		</g>
	</g>
	<g>
		<path class="st0" d="M9.1,14.9C9.2,15,9.3,15,9.4,15.1c0.1,0.1,0.2,0.2,0.2,0.4c0,0.1,0,0.2-0.1,0.2c-0.1,0.1-0.2,0.1-0.3,0.1
			c-0.3-0.1-0.5-0.4-0.6-0.7c0-0.1-0.2-0.5-0.3-0.4c0.1,0,0.3,0,0.4,0C8.8,14.8,8.9,14.9,9.1,14.9z"/>
		<g>
			<path class="st0" d="M9,15c0.2,0.1,0.4,0.2,0.5,0.5c0,0.1,0,0.3-0.1,0.3c-0.1,0.1-0.2,0.1-0.3,0c-0.3-0.1-0.5-0.5-0.7-0.8
				c0-0.1-0.1-0.1-0.1-0.2l-0.1-0.1c0,0,0,0,0,0.1c0.1,0,0.2,0,0.3,0C8.8,14.9,8.9,14.9,9,15C9.1,15,9.1,14.9,9,15
				c-0.1-0.1-0.3-0.2-0.4-0.2c-0.1,0-0.2-0.1-0.4,0v0.1l0,0l0,0c0,0,0,0.1,0.1,0.1c0,0.1,0.1,0.1,0.1,0.2c0.1,0.2,0.2,0.3,0.3,0.5
				S9,16,9.2,16s0.3-0.2,0.3-0.4C9.6,15.2,9.3,15,9,15C9,14.9,9,14.9,9,15z"/>
		</g>
	</g>
	<g>
		<path class="st0" d="M7,15c0.4-0.1,0.7,0,1,0.2c0.1,0.1,0.2,0.1,0.2,0.2c0,0.1,0,0.2-0.1,0.3c-0.1,0-0.1,0.1-0.2,0
			c-0.2,0-0.4-0.2-0.5-0.3C7.3,15.3,7.1,15.2,7,15L7,15z"/>
		<g>
			<path class="st0" d="M7,15.1c0.2,0,0.4,0,0.6,0s0.4,0.1,0.5,0.3c0.1,0.1,0.1,0.1,0.1,0.2c0,0.1-0.1,0.2-0.2,0.2
				c-0.2,0-0.4-0.1-0.5-0.2C7.4,15.4,7.2,15.2,7,15.1C7,15,7,15.1,7,15.1L7,15.1C7,15,7,15,7,15.1C7,15,7,15,7,15.1
				C6.9,15,6.9,15.1,7,15.1c0.1,0.2,0.3,0.4,0.5,0.5s0.4,0.3,0.6,0.2c0.2,0,0.3-0.3,0.2-0.4C8.2,15.2,8,15.1,7.8,15
				C7.5,15,7.2,14.9,7,15.1C6.9,15,6.9,15.1,7,15.1z"/>
		</g>
	</g>
	<g>
		<path class="st0" d="M14.4,11.8c-0.1,0.2-0.2,0.3-0.4,0.4c0-0.2,0-0.3-0.1-0.5c0-0.2-0.1-0.3-0.1-0.5s0-0.3,0.2-0.4
			c0.1-0.1,0.1-0.1,0.2-0.1C14.8,10.8,14.6,11.5,14.4,11.8C14.5,11.8,14.5,11.8,14.4,11.8z"/>
		<g>
			<path class="st0" d="M14.4,11.8c-0.1,0.2-0.2,0.3-0.4,0.4c0,0,0,0,0.1,0c0-0.1,0-0.3,0-0.4c0-0.1-0.1-0.3-0.1-0.4
				c0-0.2,0-0.6,0.2-0.7c0.2-0.1,0.3,0,0.4,0.2c0,0.1,0,0.3,0,0.4C14.5,11.5,14.5,11.7,14.4,11.8C14.4,11.8,14.4,11.9,14.4,11.8
				c0.1-0.1,0.2-0.3,0.2-0.4c0-0.2,0-0.3,0-0.5c-0.1-0.1-0.2-0.3-0.3-0.2c-0.2,0-0.4,0.3-0.4,0.5s0,0.3,0.1,0.5
				c0,0.2,0.1,0.4,0.1,0.6c0,0,0,0,0.1,0C14.3,12.2,14.4,12,14.4,11.8C14.5,11.8,14.4,11.8,14.4,11.8z"/>
		</g>
	</g>
	<g>
		<path class="st0" d="M12.5,14.2c0.2,0,0.3-0.1,0.5-0.1c0.2-0.1,0.3-0.1,0.5-0.1s0.4,0.1,0.4,0.2v0.1c0,0.3-0.4,0.3-0.6,0.3
			c-0.1,0-0.3,0-0.4-0.1C12.8,14.4,12.6,14.3,12.5,14.2"/>
		<g>
			<path class="st0" d="M12.5,14.2c0.2,0,0.5-0.1,0.7-0.2c0.2-0.1,0.5-0.1,0.6,0.1c0.1,0.1,0.1,0.2,0,0.3c0,0.1-0.1,0.1-0.2,0.1
				c-0.2,0-0.3,0-0.5,0C13,14.5,12.7,14.4,12.5,14.2C12.5,14.1,12.4,14.1,12.5,14.2c0.1,0.2,0.4,0.3,0.6,0.3c0.2,0,0.4,0,0.6,0
				c0.2,0,0.3-0.1,0.3-0.3s-0.3-0.3-0.5-0.4C13.1,13.9,12.8,14.1,12.5,14.2C12.4,14.1,12.4,14.2,12.5,14.2L12.5,14.2z"/>
		</g>
	</g>
	<g>
		<path class="st0" d="M9.7,14.7c0.1,0,0.1-0.1,0.2-0.2"/>
		<g>
			<path class="st0" d="M9.7,14.8c0.1,0,0.2-0.1,0.2-0.2l0,0l0,0l0,0l0,0l0,0l0,0l0,0l0,0l0,0l0,0C9.7,14.7,9.7,14.7,9.7,14.8
				C9.7,14.7,9.7,14.7,9.7,14.8C9.6,14.7,9.6,14.7,9.7,14.8C9.6,14.8,9.7,14.8,9.7,14.8L9.7,14.8z"/>
		</g>
	</g>
	<g>
		<path class="st0" d="M13.2,13.6c0.1,0,0.2-0.1,0.3-0.1"/>
		<g>
			<path class="st0" d="M13.2,13.7c0.1,0,0.2-0.1,0.3-0.1v-0.1C13.4,13.5,13.3,13.6,13.2,13.7C13.1,13.6,13.1,13.7,13.2,13.7
				L13.2,13.7z"/>
		</g>
	</g>
	<g>
		<path class="st0" d="M9.8,14.6c0-0.1,0-0.2,0-0.3l0,0l0,0c0.1,0,0.2,0.1,0.3,0.2l0,0l0,0C10.1,14.5,10,14.6,9.8,14.6"/>
		<g>
			<path class="st0" d="M9.9,14.6c0-0.1,0-0.2,0-0.2s0,0,0-0.1l0,0H10c0.1,0,0.1,0.1,0.1,0.1l0,0l0,0l0,0l0,0l0,0
				C10,14.5,9.9,14.5,9.9,14.6C9.8,14.6,9.8,14.6,9.9,14.6c0.1,0,0.2,0,0.2,0s0.1,0,0.1-0.1c0,0,0,0,0-0.1c0,0,0,0,0-0.1
				s-0.1-0.1-0.2-0.1H9.9c0,0-0.1,0-0.1,0.1C9.8,14.4,9.8,14.5,9.9,14.6C9.8,14.6,9.8,14.6,9.9,14.6L9.9,14.6L9.9,14.6z"/>
		</g>
	</g>
	<g>
		<path class="st0" d="M13.5,13.5c0.1-0.1,0.2-0.2,0.4-0.2l0,0l0,0c0,0.1,0,0.3-0.1,0.3C13.7,13.7,13.6,13.6,13.5,13.5"/>
		<g>
			<path class="st0" d="M13.5,13.5c0.1-0.1,0.2-0.2,0.3-0.2l0,0l0,0v0.1c0,0.1,0,0.1-0.1,0.2l0,0C13.7,13.7,13.6,13.6,13.5,13.5
				C13.5,13.5,13.4,13.5,13.5,13.5c0,0.1,0.1,0.2,0.3,0.2l0,0c0.1-0.1,0.1-0.2,0.1-0.4c0,0,0-0.1-0.1-0.1h-0.1c-0.1,0-0.1,0-0.2,0.1
				C13.6,13.4,13.5,13.5,13.5,13.5C13.4,13.5,13.5,13.6,13.5,13.5L13.5,13.5z"/>
		</g>
	</g>
	<g>
		<path class="st0" d="M13.8,12.4c0,0.1,0,0.2,0,0.3"/>
		<g>
			<path class="st0" d="M13.7,12.4c0,0.1,0,0.2,0,0.3l0,0l0,0C13.8,12.6,13.8,12.5,13.7,12.4C13.8,12.3,13.7,12.3,13.7,12.4
				L13.7,12.4z"/>
		</g>
	</g>
	<g>
		<path class="st0" d="M13.8,12.4c-0.1,0-0.2-0.1-0.3-0.2l0,0l0,0c0.1-0.1,0.3-0.2,0.4-0.1C13.8,12.1,13.8,12.2,13.8,12.4L13.8,12.4
			z"/>
		<g>
			<path class="st0" d="M13.8,12.3c-0.1,0-0.1,0-0.2-0.1c0,0,0,0-0.1-0.1l0,0l0,0l0,0l0,0l0,0l0,0h0.1c0.1,0,0.1,0,0.2,0l0,0
				c0,0.1,0,0.1-0.1,0.2C13.8,12.2,13.7,12.3,13.8,12.3C13.7,12.4,13.7,12.4,13.8,12.3C13.8,12.4,13.8,12.4,13.8,12.3l0.1-0.1
				c0-0.1,0-0.1,0.1-0.2l0,0c-0.1,0-0.2,0-0.3,0c0,0,0,0-0.1,0.1c0,0,0,0-0.1,0.1v0.1c0,0,0.1,0,0.1,0.1
				C13.6,12.3,13.7,12.4,13.8,12.3C13.8,12.4,13.8,12.3,13.8,12.3z"/>
		</g>
	</g>
	<path class="st2" d="M1.6,3.9c0.6-0.7,1.1-1.7,1.9-2.3c0.9-0.7,2-0.8,3.1-0.5"/>
	<path class="st3" d="M1.3,4.4c0.1-0.1,0.3-0.2,0.5-0.2s0.4,0,0.5,0.1c0.1,0,0.1,0.1,0.1,0.2c0,0,0,0,0,0.1S2.3,4.7,2.2,4.7
		C1.9,4.7,1.5,4.6,1.3,4.4L1.3,4.4z"/>
	<path class="st3" d="M2.5,3.2c-0.2,0-0.4,0.1-0.6,0.3l0,0l0,0C2,3.6,2.3,3.7,2.4,3.7c0.2,0,0.4,0,0.5-0.2V3.4c0-0.1,0-0.1-0.1-0.1
		C2.8,3.2,2.6,3.2,2.5,3.2z"/>
	<path class="st3" d="M5.4,1.1C5.2,1,5,1,4.8,1C4.9,1.3,5,1.6,5.3,1.7c0.1,0,0.2,0.1,0.2,0.1c0.1,0,0.2,0,0.3-0.1
		c0.1-0.1,0.1-0.2,0.1-0.3c0-0.1-0.1-0.2-0.2-0.3C5.6,1.2,5.5,1.1,5.4,1.1z"/>
	<path class="st4" d="M2.8,2.2L2.8,2.2C2.9,2.3,3,2.4,3.1,2.4c0.2,0.1,0.4,0.2,0.6,0.2c0.1,0,0.1,0,0.2-0.1C4,2.5,4,2.4,4,2.3
		c0,0,0-0.1-0.1-0.1C3.7,2.1,3.5,2,3.4,2C3.2,2,3.1,2,3,2.1L2.8,2.2z"/>
	<path class="st3" d="M3.7,1.4c0,0.1,0,0.2,0.1,0.2C3.9,1.8,4,1.9,4.1,2c0.1,0,0.2,0,0.3,0s0.2,0,0.2-0.1s0-0.1,0-0.2L4.5,1.6
		C4.2,1.5,3.9,1.4,3.7,1.4"/>
	<path class="st3" d="M6,0.2C5.9,0.3,5.8,0.4,5.7,0.6c0,0.1-0.1,0.1-0.1,0.2V1c0.3-0.1,0.5-0.1,0.8-0.3c0.1-0.1,0.2-0.1,0.2-0.2
		s0-0.2-0.1-0.3c-0.1,0-0.1,0-0.2,0C6.2,0.1,6.1,0.2,6,0.2z"/>
	<path class="st5" d="M3.1,1.8c0.2-0.3,0.3-0.6,0.3-0.9c0-0.1,0-0.2-0.1-0.2S3.2,0.5,3.2,0.6c-0.1,0-0.1,0-0.2,0.1S2.9,1,2.9,1.2
		c0,0.1,0,0.2,0,0.3C2.9,1.7,3,1.8,3.1,1.8L3.1,1.8z"/>
	<path class="st3" d="M2.5,1.8c0-0.1-0.1-0.3-0.2-0.3C2.2,1.4,2.1,1.3,2,1.4C1.9,1.5,1.9,1.6,1.9,1.7C2,2,2.1,2.2,2.2,2.5l0.2,0.2
		C2.6,2.5,2.5,2,2.5,1.8z"/>
	<path class="st3" d="M1.9,3.2c0-0.1,0-0.2,0-0.4c0-0.1-0.1-0.2-0.2-0.3c0,0-0.1-0.1-0.2-0.1S1.3,2.5,1.3,2.6
		c-0.1,0.3,0,0.5,0.1,0.8l0.2,0.4c0.1-0.1,0.1-0.2,0.2-0.3C1.8,3.4,1.8,3.3,1.9,3.2z"/>
	<path class="st3" d="M0.9,5.1C1,4.9,1,4.6,0.9,4.3c0-0.1-0.1-0.2-0.1-0.2c0-0.1-0.1-0.1-0.2,0c0,0-0.1,0.1-0.1,0.2
		c0,0.2,0.1,0.3,0.2,0.4S0.8,4.9,0.9,5.1L0.9,5.1z"/>
	<path class="st3" d="M6.8,0.9c-0.2,0-0.3,0-0.5,0.1c0.1,0.1,0.2,0.2,0.3,0.3C6.8,1.4,6.9,1.5,7,1.6s0.3,0.1,0.4,0.1
		s0.1-0.1,0.2-0.1C7.8,1.2,7.1,1,6.8,0.9C6.9,1,6.8,0.9,6.8,0.9z"/>
	<path class="st3" d="M4.2,1.2C4.3,1,4.4,1,4.5,0.9s0.3-0.2,0.3-0.3C5,0.5,5,0.3,4.9,0.2c0,0,0-0.1-0.1-0.1C4.7-0.1,4.4,0.2,4.4,0.3
		C4.3,0.4,4.2,0.5,4.2,0.7C4.1,0.8,4.1,1,4.2,1.2"/>
	<path class="st3" d="M2.3,2.9c0.1,0,0.1-0.1,0.2-0.1"/>
	<path class="st3" d="M4.9,0.9C5,0.9,5,0.8,5.1,0.8"/>
	<path class="st3" d="M2.5,2.8C2.6,2.9,2.7,2.9,2.7,3l0,0l0,0c0.1-0.1,0-0.2,0-0.3l0,0l0,0C2.7,2.7,2.6,2.7,2.5,2.8L2.5,2.8z"/>
	<path class="st3" d="M5.1,0.8c0.1,0,0.3-0.1,0.3-0.2l0,0l0,0c0-0.1-0.2-0.2-0.3-0.2C5.1,0.5,5.1,0.7,5.1,0.8"/>
	<path class="st3" d="M6.1,1.2C6,1.1,6,1,5.9,1"/>
	<path class="st3" d="M6.1,1.2c0,0.1,0,0.2,0,0.3l0,0l0,0c0.1,0,0.3-0.1,0.3-0.2C6.3,1.2,6.2,1.2,6.1,1.2L6.1,1.2z"/>
	<g>
		<g>
			<path class="st0" d="M5.5,15.8c0.3-0.4,0.8-0.7,1.3-0.9s1-0.2,1.5-0.4c0.8-0.3,1.3-1.1,1.4-1.9c0,0-0.1-0.1-0.1,0
				c-0.1,0.5-0.2,0.9-0.5,1.3c-0.3,0.4-0.8,0.6-1.3,0.7C6.9,14.8,6,15,5.5,15.8C5.4,15.8,5.5,15.9,5.5,15.8L5.5,15.8z"/>
		</g>
	</g>
	<g>
		<path class="st0" d="M6.4,15c-0.1-0.2-0.1-0.5,0.1-0.7c0-0.1,0.1-0.1,0.2-0.1c0,0,0,0,0.1,0s0.1,0.1,0.1,0.1c0,0.1,0,0.3-0.1,0.4
			C6.7,14.9,6.5,15,6.4,15"/>
		<g>
			<path class="st0" d="M6.4,15c-0.1-0.2-0.1-0.5,0.1-0.7c0,0,0.1-0.1,0.2-0.1s0.1,0.1,0.1,0.1c0,0.1,0,0.3-0.1,0.4
				C6.6,14.9,6.5,15,6.4,15C6.4,15,6.4,15.1,6.4,15c0.3-0.1,0.4-0.4,0.4-0.7c0-0.1,0-0.1-0.1-0.2c-0.1,0-0.1,0-0.2,0
				c-0.1,0.1-0.2,0.2-0.2,0.4C6.3,14.7,6.3,14.9,6.4,15C6.4,15.1,6.5,15.1,6.4,15L6.4,15z"/>
		</g>
	</g>
	<g>
		<path class="st0" d="M9.3,13.3c0,0.1,0,0.3-0.1,0.4c-0.1-0.1-0.3-0.3-0.3-0.5c0-0.1,0-0.1,0-0.2c0-0.1,0-0.1,0.1-0.1s0.1,0,0.2,0
			c0.1,0,0.1,0.1,0.1,0.2C9.3,13.2,9.3,13.2,9.3,13.3z"/>
		<g>
			<path class="st0" d="M9.3,13.3c0,0.1,0,0.2-0.1,0.3c0,0,0,0,0.1,0c-0.1-0.1-0.2-0.2-0.2-0.2C9,13.3,9,13.2,9,13.1S9,13,9.1,13
				s0.1,0,0.2,0C9.3,13,9.3,13.2,9.3,13.3L9.3,13.3c0.1-0.1,0.1-0.2,0-0.3S9.1,12.9,9,12.9S8.8,13,8.9,13.1c0,0.1,0,0.2,0.1,0.3
				s0.2,0.2,0.2,0.3c0,0,0,0,0.1,0C9.3,13.6,9.3,13.4,9.3,13.3L9.3,13.3z"/>
		</g>
	</g>
	<g>
		<path class="st0" d="M8,14.6L8,14.6c0-0.1,0-0.2-0.1-0.3c0-0.1,0-0.3,0-0.4L8,13.8c0,0,0.1,0,0.2,0c0,0,0,0,0.1,0.1s0.1,0.3,0,0.4
			c0,0.1-0.1,0.1-0.1,0.2C8.2,14.4,8.1,14.5,8,14.6z"/>
		<g>
			<path class="st0" d="M8,14.5L8,14.5C8,14.5,8.1,14.5,8,14.5c0-0.1,0-0.2,0-0.3s0-0.3,0.1-0.4c0,0,0.1-0.1,0.2,0
				c0,0,0.1,0.1,0.1,0.2c0,0.1,0,0.3-0.1,0.4C8.2,14.4,8.1,14.4,8,14.5C8.1,14.5,8.1,14.5,8,14.5C8,14.5,8,14.6,8,14.5
				C8.1,14.5,8.1,14.5,8,14.5l0.2-0.1c0.1-0.1,0.1-0.3,0.1-0.5c0-0.1,0-0.1-0.1-0.2c-0.1,0-0.1,0-0.2,0c-0.1,0.1-0.2,0.3-0.2,0.4
				s0,0.2,0,0.3C7.9,14.4,7.9,14.5,8,14.5C8,14.5,8,14.6,8,14.5C8.1,14.6,8.1,14.5,8,14.5z"/>
		</g>
	</g>
	<g>
		<path class="st0" d="M8.8,14.1L8.7,14c0-0.1-0.1-0.2-0.1-0.3s0-0.1,0-0.2l0.1-0.1c0,0,0.1,0,0.1,0.1v0.1C8.9,13.8,8.9,14,8.8,14.1
			"/>
		<g>
			<path class="st0" d="M8.8,14.1c-0.1,0-0.1-0.1-0.1-0.1s0-0.1-0.1-0.2c0-0.1-0.1-0.2,0.1-0.3c0.1,0,0.1,0,0.1,0.1s0,0.1,0,0.2
				C8.9,13.9,8.8,14,8.8,14.1C8.8,14.1,8.8,14.2,8.8,14.1c0.1-0.1,0.1-0.2,0.1-0.3s0-0.2-0.1-0.3s-0.2,0-0.2,0c-0.1,0.1,0,0.2,0,0.3
				s0,0.1,0.1,0.2C8.7,14.1,8.7,14.1,8.8,14.1C8.8,14.2,8.9,14.1,8.8,14.1L8.8,14.1z"/>
		</g>
	</g>
	<g>
		<path class="st0" d="M9.9,13.2c-0.1,0-0.2,0.1-0.2,0.1H9.6H9.5c0.1-0.1,0.2-0.3,0.4-0.4c0.1,0,0.1-0.1,0.2-0.1
			c0.1,0,0.1,0,0.2,0.1V13C10.1,13.1,10,13.1,9.9,13.2z"/>
		<g>
			<path class="st0" d="M9.9,13.1c-0.1,0-0.2,0.1-0.3,0.1H9.5l0,0l0,0l0,0l0,0l0,0l0,0c0.1-0.2,0.2-0.3,0.4-0.4H10l0.1,0.1
				C10.1,13,10,13.1,9.9,13.1C9.9,13.1,9.9,13.2,9.9,13.1c0.1,0,0.3-0.1,0.3-0.2c0-0.1-0.1-0.1-0.1-0.1c-0.1,0-0.1,0-0.2,0
				c-0.1,0.1-0.2,0.2-0.3,0.3c0,0.1-0.1,0.1-0.1,0.2c0,0.1,0,0.1,0.1,0.1C9.7,13.3,9.8,13.2,9.9,13.1C10,13.2,10,13.1,9.9,13.1z"/>
		</g>
	</g>
	<g>
		<path class="st0" d="M6.1,15.2c0.2-0.1,0.4-0.1,0.6,0c0.1,0,0.1,0,0.2,0.1c0,0,0,0.1,0,0.2l-0.1,0.1c-0.1,0-0.2,0-0.3-0.1
			C6.3,15.4,6.2,15.3,6.1,15.2L6.1,15.2z"/>
		<g>
			<path class="st0" d="M6.1,15.3c0.1-0.1,0.3-0.1,0.4-0.1s0.3,0,0.3,0.2c0,0.1,0,0.1-0.1,0.1s-0.1,0-0.2,0
				C6.4,15.4,6.2,15.3,6.1,15.3C6.1,15.2,6.1,15.3,6.1,15.3L6.1,15.3C6.1,15.2,6.1,15.2,6.1,15.3C6,15.2,6,15.2,6.1,15.3
				C6,15.2,6,15.3,6.1,15.3c0.1,0.1,0.2,0.2,0.4,0.2c0.1,0.1,0.2,0.1,0.4,0c0.1-0.1,0.1-0.2,0-0.3s-0.2-0.1-0.3-0.1
				C6.3,15.1,6.2,15.2,6.1,15.3C6,15.2,6.1,15.3,6.1,15.3z"/>
		</g>
	</g>
	<g>
		<path class="st0" d="M9.7,12.5c0,0.1-0.1,0.2-0.1,0.3c0-0.1-0.1-0.2-0.1-0.3s-0.1-0.2-0.1-0.2c0-0.1,0-0.2,0-0.3l0.1-0.1
			C9.8,11.9,9.8,12.3,9.7,12.5L9.7,12.5z"/>
		<g>
			<path class="st0" d="M9.7,12.5c0,0.1-0.1,0.2-0.1,0.2s0,0,0.1,0c0-0.1,0-0.1-0.1-0.2c0-0.1-0.1-0.1-0.1-0.2
				c-0.1-0.1-0.1-0.3,0-0.4c0.1,0,0.2,0,0.2,0c0,0.1,0.1,0.1,0.1,0.2C9.7,12.3,9.7,12.4,9.7,12.5L9.7,12.5c0.1-0.1,0.1-0.2,0.1-0.2
				c0-0.1,0-0.2-0.1-0.3s-0.1-0.1-0.2-0.1c-0.1,0-0.2,0.2-0.2,0.3s0.1,0.2,0.1,0.3s0.1,0.2,0.1,0.3c0,0,0,0,0.1,0
				C9.7,12.7,9.7,12.6,9.7,12.5C9.8,12.5,9.7,12.4,9.7,12.5z"/>
		</g>
	</g>
	<g>
		<path class="st0" d="M9,14c0.1,0,0.2-0.1,0.2-0.1c0.1-0.1,0.2-0.1,0.2-0.1c0.1,0,0.2,0,0.3,0.1c0,0,0,0,0,0.1s-0.2,0.2-0.3,0.2
			s-0.2,0-0.2,0C9.2,14.1,9.1,14.1,9,14"/>
		<g>
			<path class="st0" d="M9,14c0.1,0,0.2-0.1,0.3-0.2c0.1-0.1,0.2-0.1,0.3-0.1l0.1,0.1c0,0,0,0.1-0.1,0.1c0,0.1-0.1,0.1-0.2,0.2
				C9.3,14.1,9.1,14.1,9,14C9,13.9,8.9,14,9,14c0.1,0.1,0.2,0.1,0.4,0.1c0.1,0,0.2,0,0.3-0.1s0.1-0.2,0.1-0.3
				c-0.1-0.1-0.2-0.1-0.4-0.1C9.3,13.8,9.2,13.9,9,14C8.9,14,9,14,9,14L9,14z"/>
		</g>
	</g>
	<g>
		<path class="st0" d="M9.3,13.6c0.1,0,0.1-0.1,0.2-0.1"/>
		<g>
			<path class="st0" d="M9.3,13.7c0.1,0,0.1-0.1,0.2-0.1l0,0l0,0C9.4,13.5,9.3,13.6,9.3,13.7C9.2,13.6,9.2,13.6,9.3,13.7L9.3,13.7
				L9.3,13.7z"/>
		</g>
	</g>
	<g>
		<path class="st0" d="M9.4,13.5c0-0.1,0.1-0.1,0.2-0.1l0,0l0,0c0,0.1,0,0.1,0,0.2C9.6,13.6,9.5,13.6,9.4,13.5"/>
		<g>
			<path class="st0" d="M9.5,13.5L9.5,13.5L9.5,13.5L9.5,13.5L9.5,13.5L9.5,13.5L9.5,13.5L9.5,13.5L9.5,13.5
				C9.5,13.5,9.5,13.4,9.5,13.5C9.6,13.4,9.6,13.4,9.5,13.5c0.1-0.1,0.1-0.1,0.1-0.1l0,0l0,0l0,0l0,0l0,0l0,0l0,0l0,0l0,0l0,0l0,0
				l0,0l0,0l0,0v0.1l0,0C9.6,13.6,9.5,13.5,9.5,13.5S9.4,13.5,9.5,13.5C9.4,13.5,9.4,13.5,9.5,13.5c0,0.1,0.1,0.1,0.2,0.1l0,0v-0.1
				v-0.1H9.6C9.6,13.4,9.5,13.4,9.5,13.5C9.4,13.4,9.4,13.5,9.5,13.5C9.4,13.5,9.4,13.6,9.5,13.5C9.5,13.6,9.5,13.6,9.5,13.5
				L9.5,13.5z"/>
		</g>
	</g>
	<g>
		<path class="st0" d="M9.4,12.9c0,0,0,0.1,0.1,0.1"/>
		<g>
			<path class="st0" d="M9.4,12.9c0,0,0,0.1,0.1,0.1l0,0l0,0C9.5,13,9.5,12.9,9.4,12.9C9.5,12.8,9.4,12.8,9.4,12.9
				C9.4,12.8,9.4,12.9,9.4,12.9L9.4,12.9z"/>
		</g>
	</g>
	<g>
		<path class="st0" d="M9.4,12.9c-0.1,0-0.1,0-0.2-0.1l0,0l0,0c0-0.1,0.1-0.1,0.2-0.1C9.4,12.7,9.4,12.8,9.4,12.9L9.4,12.9z"/>
		<g>
			<path class="st0" d="M9.4,12.8L9.4,12.8L9.4,12.8L9.4,12.8L9.4,12.8L9.4,12.8c-0.1,0-0.1,0-0.1,0l0,0l0,0l0,0l0,0l0,0l0,0l0,0
				l0,0l0,0l0,0l0,0l0,0l0,0l0,0l0,0l0,0l0,0l0,0l0,0l0,0l0,0l0,0l0,0l0,0l0,0l0,0l0,0l0,0l0,0C9.4,12.7,9.4,12.7,9.4,12.8L9.4,12.8
				C9.4,12.9,9.4,12.9,9.4,12.8C9.5,12.9,9.5,12.9,9.4,12.8C9.5,12.8,9.5,12.8,9.4,12.8c0-0.1,0-0.1,0-0.2l0,0c-0.1,0-0.1,0-0.2,0.1
				c0,0,0,0.1-0.1,0.1c0,0,0,0,0,0.1c0,0,0,0,0.1,0C9.3,12.9,9.4,12.9,9.4,12.8C9.5,12.9,9.5,12.9,9.4,12.8
				C9.5,12.8,9.5,12.8,9.4,12.8z"/>
		</g>
	</g>
</g>
</svg>
